<svg width="28" height="26" viewBox="0 0 28 26" fill="none" xmlns="http://www.w3.org/2000/svg">
<g filter="url(#filter0_d_3_31)">
<path d="M14.0471 0.54126C11.8691 0.54126 9.74013 1.18709 7.92925 2.39708C6.11838 3.60707 4.70697 5.32687 3.87352 7.339C3.04006 9.35114 2.82199 11.5652 3.24688 13.7013C3.67177 15.8374 4.72054 17.7995 6.26057 19.3395C7.80059 20.8795 9.7627 21.9283 11.8988 22.3532C14.0348 22.7781 16.2489 22.56 18.2611 21.7266C20.2732 20.8931 21.993 19.4817 23.203 17.6708C24.413 15.86 25.0588 13.7309 25.0588 11.553C25.0557 8.63347 23.8946 5.83437 21.8301 3.76994C19.7657 1.7055 16.9666 0.544343 14.0471 0.54126ZM14.0471 20.8707C12.2042 20.8707 10.4027 20.3242 8.87045 19.3004C7.33817 18.2765 6.14391 16.8213 5.43868 15.1187C4.73345 13.4162 4.54892 11.5427 4.90845 9.73524C5.26797 7.9278 6.15539 6.26755 7.45849 4.96445C8.76158 3.66136 10.4218 2.77394 12.2293 2.41441C14.0367 2.05489 15.9102 2.23941 17.6128 2.94464C19.3153 3.64987 20.7706 4.84414 21.7944 6.37642C22.8182 7.9087 23.3647 9.71017 23.3647 11.553C23.3619 14.0234 22.3793 16.3917 20.6325 18.1385C18.8857 19.8853 16.5174 20.8679 14.0471 20.8707ZM18.8816 10.9537C18.9604 11.0324 19.0229 11.1258 19.0655 11.2287C19.1081 11.3315 19.1301 11.4417 19.1301 11.553C19.1301 11.6643 19.1081 11.7746 19.0655 11.8774C19.0229 11.9802 18.9604 12.0737 18.8816 12.1523L15.4934 15.5406C15.3345 15.6995 15.1189 15.7888 14.8941 15.7888C14.6693 15.7888 14.4538 15.6995 14.2948 15.5406C14.1359 15.3816 14.0466 15.166 14.0466 14.9413C14.0466 14.7165 14.1359 14.5009 14.2948 14.342L16.2378 12.4001H9.81177C9.58711 12.4001 9.37166 12.3108 9.2128 12.152C9.05395 11.9931 8.96471 11.7777 8.96471 11.553C8.96471 11.3284 9.05395 11.1129 9.2128 10.9541C9.37166 10.7952 9.58711 10.706 9.81177 10.706H16.2378L14.2948 8.76408C14.1359 8.60514 14.0466 8.38957 14.0466 8.16479C14.0466 7.94001 14.1359 7.72444 14.2948 7.56549C14.4538 7.40655 14.6693 7.31726 14.8941 7.31726C15.1189 7.31726 15.3345 7.40655 15.4934 7.56549L18.8816 10.9537Z" fill="#F3F4F4"/>
</g>
<defs>
<filter id="filter0_d_3_31" x="-0.96471" y="0.54126" width="30.0235" height="30.0234" filterUnits="userSpaceOnUse" color-interpolation-filters="sRGB">
<feFlood flood-opacity="0" result="BackgroundImageFix"/>
<feColorMatrix in="SourceAlpha" type="matrix" values="0 0 0 0 0 0 0 0 0 0 0 0 0 0 0 0 0 0 127 0" result="hardAlpha"/>
<feOffset dy="4"/>
<feGaussianBlur stdDeviation="2"/>
<feComposite in2="hardAlpha" operator="out"/>
<feColorMatrix type="matrix" values="0 0 0 0 0 0 0 0 0 0 0 0 0 0 0 0 0 0 0.25 0"/>
<feBlend mode="normal" in2="BackgroundImageFix" result="effect1_dropShadow_3_31"/>
<feBlend mode="normal" in="SourceGraphic" in2="effect1_dropShadow_3_31" result="shape"/>
</filter>
</defs>
</svg>
