<svg width="23" height="23" viewBox="0 0 23 23" fill="none" xmlns="http://www.w3.org/2000/svg">
<path d="M11.1177 0.964844C8.93974 0.964844 6.81073 1.61067 4.99986 2.82066C3.18898 4.03065 1.77758 5.75045 0.944122 7.76259C0.110667 9.77472 -0.107402 11.9888 0.317489 14.1249C0.74238 16.261 1.79115 18.2231 3.33117 19.7631C4.87119 21.3031 6.8333 22.3519 8.96938 22.7768C11.1054 23.2017 13.3195 22.9836 15.3317 22.1502C17.3438 21.3167 19.0636 19.9053 20.2736 18.0944C21.4836 16.2835 22.1294 14.1545 22.1294 11.9766C22.1263 9.05705 20.9652 6.25796 18.9008 4.19352C16.8363 2.12908 14.0372 0.967927 11.1177 0.964844ZM11.1177 21.2943C9.27481 21.2943 7.47334 20.7478 5.94106 19.7239C4.40878 18.7001 3.21451 17.2449 2.50928 15.5423C1.80405 13.8397 1.61953 11.9663 1.97905 10.1588C2.33858 8.35138 3.226 6.69113 4.52909 5.38804C5.83219 4.08494 7.49244 3.19752 9.29988 2.838C11.1073 2.47847 12.9808 2.66299 14.6834 3.36823C16.386 4.07346 17.8412 5.26772 18.865 6.8C19.8888 8.33228 20.4353 10.1338 20.4353 11.9766C20.4325 14.4469 19.4499 16.8153 17.7031 18.5621C15.9564 20.3089 13.588 21.2915 11.1177 21.2943ZM15.9523 11.3773C16.031 11.456 16.0935 11.5494 16.1361 11.6522C16.1787 11.7551 16.2007 11.8653 16.2007 11.9766C16.2007 12.0879 16.1787 12.1982 16.1361 12.301C16.0935 12.4038 16.031 12.4972 15.9523 12.5759L12.564 15.9641C12.4051 16.1231 12.1895 16.2124 11.9647 16.2124C11.7399 16.2124 11.5244 16.1231 11.3654 15.9641C11.2065 15.8052 11.1172 15.5896 11.1172 15.3648C11.1172 15.1401 11.2065 14.9245 11.3654 14.7655L13.3084 12.8237H6.88237C6.65772 12.8237 6.44226 12.7344 6.28341 12.5756C6.12456 12.4167 6.03531 12.2013 6.03531 11.9766C6.03531 11.752 6.12456 11.5365 6.28341 11.3776C6.44226 11.2188 6.65772 11.1295 6.88237 11.1295H13.3084L11.3654 9.18767C11.2065 9.02872 11.1172 8.81315 11.1172 8.58837C11.1172 8.36359 11.2065 8.14802 11.3654 7.98908C11.5244 7.83014 11.7399 7.74084 11.9647 7.74084C12.1895 7.74084 12.4051 7.83014 12.564 7.98908L15.9523 11.3773Z" fill="#D91D24"/>
</svg>
