<svg width="23" height="23" viewBox="0 0 23 23" fill="none" xmlns="http://www.w3.org/2000/svg">
<path d="M11.0471 0.800293C8.86916 0.800293 6.74015 1.44612 4.92927 2.65611C3.11839 3.8661 1.70699 5.5859 0.873534 7.59804C0.0400801 9.61017 -0.17799 11.8243 0.246902 13.9603C0.671793 16.0964 1.72056 18.0585 3.26059 19.5986C4.80061 21.1386 6.76272 22.1873 8.89879 22.6122C11.0349 23.0371 13.249 22.8191 15.2611 21.9856C17.2732 21.1521 18.993 19.7407 20.203 17.9299C21.413 16.119 22.0588 13.99 22.0588 11.8121C22.0558 8.8925 20.8946 6.09341 18.8302 4.02897C16.7657 1.96453 13.9666 0.803376 11.0471 0.800293ZM11.0471 21.1297C9.20422 21.1297 7.40275 20.5832 5.87047 19.5594C4.33819 18.5356 3.14393 17.0803 2.43869 15.3778C1.73346 13.6752 1.54894 11.8017 1.90847 9.99428C2.26799 8.18683 3.15541 6.52658 4.45851 5.22349C5.7616 3.92039 7.42185 3.03297 9.2293 2.67345C11.0367 2.31392 12.9102 2.49844 14.6128 3.20367C16.3154 3.9089 17.7706 5.10317 18.7944 6.63545C19.8183 8.16773 20.3647 9.9692 20.3647 11.8121C20.3619 14.2824 19.3793 16.6507 17.6326 18.3975C15.8858 20.1443 13.5174 21.1269 11.0471 21.1297ZM15.8817 11.2128C15.9604 11.2914 16.0229 11.3849 16.0655 11.4877C16.1082 11.5905 16.1301 11.7007 16.1301 11.8121C16.1301 11.9234 16.1082 12.0336 16.0655 12.1364C16.0229 12.2393 15.9604 12.3327 15.8817 12.4114L12.4934 15.7996C12.3345 15.9585 12.1189 16.0478 11.8941 16.0478C11.6694 16.0478 11.4538 15.9585 11.2948 15.7996C11.1359 15.6406 11.0466 15.4251 11.0466 15.2003C11.0466 14.9755 11.1359 14.7599 11.2948 14.601L13.2378 12.6591H6.81178C6.58713 12.6591 6.37168 12.5699 6.21282 12.411C6.05397 12.2522 5.96473 12.0367 5.96473 11.8121C5.96473 11.5874 6.05397 11.372 6.21282 11.2131C6.37168 11.0542 6.58713 10.965 6.81178 10.965H13.2378L11.2948 9.02312C11.1359 8.86417 11.0466 8.6486 11.0466 8.42382C11.0466 8.19904 11.1359 7.98347 11.2948 7.82453C11.4538 7.66559 11.6694 7.57629 11.8941 7.57629C12.1189 7.57629 12.3345 7.66559 12.4934 7.82453L15.8817 11.2128Z" fill="#01205C"/>
</svg>
